<?xml version="1.0" encoding="UTF-8"?>
<svg id="Layer_2" data-name="Layer 2" xmlns="http://www.w3.org/2000/svg" viewBox="0 0 126.09 99.71">
  <defs>
    <style>
      .cls-1 {
        fill: #ffaa05;
      }
    </style>
  </defs>
  <g id="OBJECTS">
    <g>
      <path class="cls-1" d="M125.46,34.06L92.01.61c-.81-.81-2.25-.81-3.06,0l-13.01,13.01c-.84.84-.84,2.21,0,3.06l2.49,2.49h-22.81c-.57,0-1.12.23-1.53.63l-1.96,1.96-2.77-2.77.79-.79c.84-.84.84-2.21,0-3.06l-13.01-13.01c-.84-.84-2.21-.84-3.06,0L.63,35.58c-.84.84-.84,2.21,0,3.06l13.01,13.01c.84.84,2.21.84,3.06,0l.52-.52,6.48,6.48-3.73,3.73c-3.11,3.11-3.11,8.18,0,11.3,1.51,1.51,3.56,2.39,5.93,2.31-.08,2.14.68,4.3,2.31,5.93,1.51,1.51,3.56,2.39,5.93,2.31-.08,2.14.68,4.3,2.31,5.93,1.5,1.5,3.55,2.39,5.93,2.31-.08,2.14.68,4.3,2.31,5.93,3.11,3.11,8.18,3.11,11.3,0l3.73-3.73,1.32,1.32c3.12,3.12,8.19,3.12,11.31,0,1.62-1.62,2.4-3.78,2.34-5.92,2.26.08,4.39-.8,5.91-2.33,1.6-1.6,2.42-3.74,2.34-5.91,2.13.05,4.29-.71,5.91-2.33,1.62-1.62,2.4-3.78,2.34-5.92,2.04.08,4.28-.7,5.91-2.33,3.11-3.11,3.11-8.19,0-11.31l-1.07-1.07,10.55-10.55,2.84,2.84c.84.84,2.21.84,3.06,0l13.01-13.01c.84-.84.84-2.21,0-3.06ZM5.22,37.11L35.61,6.71l9.96,9.96-29.88,29.88s0,0,0,0c0,0,0,0,0,0l-.51.51-9.96-9.96ZM23.02,69.59c-1.42-1.42-1.44-3.74,0-5.19l5.15-5.15c1.43-1.43,3.75-1.44,5.19,0,1.42,1.42,1.44,3.74,0,5.19l-5.15,5.15c-1.39,1.39-3.8,1.38-5.19,0ZM31.27,77.83c-1.43-1.43-1.44-3.75,0-5.19l5.15-5.15c1.43-1.43,3.75-1.44,5.19,0,1.43,1.43,1.44,3.75,0,5.19l-5.15,5.15c-1.39,1.39-3.8,1.38-5.19,0ZM39.51,86.07c-1.42-1.42-1.44-3.74,0-5.19l5.15-5.15c1.43-1.43,3.75-1.44,5.19,0,.69.69,1.07,1.61,1.07,2.59s-.38,1.9-1.07,2.59l-5.15,5.15c-1.39,1.38-3.8,1.38-5.19,0ZM52.94,94.32c-1.39,1.39-3.8,1.39-5.19,0-1.42-1.42-1.44-3.74,0-5.19l5.15-5.15c.69-.69,1.61-1.07,2.59-1.07s1.9.38,2.59,1.07c1.42,1.42,1.44,3.74,0,5.19l-5.15,5.15ZM94.03,67.17c-1.44,1.43-3.76,1.43-5.19,0-.03-.03-.07-.04-.1-.07l-18.1-18.1c-.84-.84-2.21-.84-3.06,0-.84.84-.84,2.21,0,3.06l18.18,18.18s.05.03.07.04c1.38,1.44,1.36,3.73-.05,5.14-1.43,1.43-3.76,1.42-5.19,0l-18.18-18.18c-.84-.84-2.21-.84-3.06,0-.84.84-.84,2.21,0,3.06l18.18,18.18c1.43,1.43,1.44,3.76,0,5.19-1.43,1.43-3.75,1.43-5.19,0l-18.18-18.18c-.84-.84-2.21-.84-3.06,0-.84.84-.84,2.21,0,3.06l18.18,18.18c1.43,1.43,1.43,3.77,0,5.2-1.43,1.43-3.76,1.42-5.19,0l-1.59-1.59c1.61-3.02,1.17-6.85-1.37-9.39-1.63-1.63-3.79-2.39-5.93-2.31.08-2.14-.68-4.3-2.31-5.93-1.63-1.63-3.79-2.38-5.93-2.31.08-2.14-.68-4.3-2.31-5.93-1.63-1.63-3.79-2.39-5.93-2.31.08-2.14-.68-4.3-2.31-5.93-2.54-2.54-6.37-2.97-9.39-1.37l-6.75-6.75,26.04-26.04,2.77,2.77-8.71,8.71c-3.56,3.56-3.56,9.34,0,12.9,3.56,3.56,9.34,3.56,12.9,0l8.97-8.97,4.18,4.18c.42.42,1,.64,1.6.63l6.08-.21,19.93,19.93c1.43,1.43,1.44,3.76,0,5.19ZM92.95,54.79l-12.95-12.95,4.59-.16c1.19-.04,2.13-1.04,2.08-2.24-.04-1.19-1.01-2.14-2.24-2.08l-15.64.55-5.04-5.04c-.84-.84-2.21-.84-3.06,0l-10.5,10.5c-1.87,1.87-4.91,1.87-6.79,0-1.87-1.87-1.87-4.92,0-6.79l13.09-13.09h26.24l20.75,20.75-10.55,10.55ZM110.92,45.54l-30.4-30.4,9.96-9.96,30.4,30.4-9.96,9.96Z"/>
      <path class="cls-1" d="M18.74,37.33c.84-.84.84-2.21,0-3.06-.84-.84-2.21-.84-3.06,0l-3.19,3.19c-.84.84-.84,2.21,0,3.06.84.84,2.21.84,3.06,0l3.19-3.19Z"/>
    </g>
  </g>
</svg>