<?xml version="1.0" encoding="UTF-8"?>
<svg id="Layer_2" data-name="Layer 2" xmlns="http://www.w3.org/2000/svg" viewBox="0 0 115.79 94.01">
  <defs>
    <style>
      .cls-1 {
        fill: #ffaa05;
      }
    </style>
  </defs>
  <g id="OBJECTS">
    <g>
      <g>
        <path class="cls-1" d="M53.84,58.34h-4.9c-.21-.58-.45-1.16-.71-1.71l3.47-3.47c.41-.41.63-.95.63-1.53s-.23-1.12-.63-1.53l-7.79-7.79c-.81-.81-2.25-.81-3.06,0l-3.47,3.47c-.56-.26-1.13-.49-1.71-.7v-4.91c0-1.19-.97-2.16-2.16-2.16h-11.02c-1.19,0-2.16.97-2.16,2.16v4.91c-.58.21-1.15.45-1.71.7l-3.47-3.47c-.84-.84-2.21-.84-3.06,0l-7.79,7.79c-.84.84-.84,2.21,0,3.06l3.47,3.47c-.26.56-.49,1.13-.7,1.71H2.16c-1.19,0-2.16.97-2.16,2.16v11.02c0,1.19.97,2.16,2.16,2.16h4.9c.21.58.45,1.15.7,1.71l-3.47,3.47c-.84.84-.84,2.21,0,3.06l7.79,7.79c.84.84,2.21.84,3.06,0l3.47-3.46c.56.26,1.13.49,1.71.7v4.9c0,1.19.97,2.16,2.16,2.16h11.02c1.19,0,2.16-.97,2.16-2.16v-4.9c.58-.21,1.15-.45,1.71-.71l3.47,3.47c.84.84,2.21.84,3.06,0l7.79-7.79c.41-.41.63-.95.63-1.53s-.23-1.12-.63-1.53l-3.47-3.47c.26-.56.49-1.13.71-1.71h4.9c1.19,0,2.16-.97,2.16-2.16v-11.02c0-1.19-.97-2.16-2.16-2.16ZM51.68,69.36h-4.31c-.96,0-1.81.64-2.08,1.57-.39,1.36-.92,2.65-1.58,3.83-.47.84-.32,1.9.36,2.58l3.05,3.05-4.74,4.74-3.05-3.05c-.68-.68-1.74-.83-2.58-.36-1.19.66-2.48,1.19-3.83,1.58-.93.26-1.57,1.11-1.57,2.08v4.31h-6.7v-4.31c0-.97-.64-1.81-1.57-2.08-1.36-.39-2.64-.92-3.83-1.58-.84-.47-1.9-.32-2.58.36l-3.05,3.05-4.74-4.74,3.05-3.05c.68-.68.83-1.74.36-2.58-.66-1.19-1.19-2.48-1.58-3.83-.26-.93-1.11-1.57-2.08-1.57h-4.31v-6.7h4.31c.97,0,1.81-.64,2.08-1.57.38-1.35.91-2.64,1.58-3.83.47-.84.32-1.9-.36-2.58l-3.05-3.05,4.74-4.74,3.05,3.05c.68.68,1.74.83,2.58.36,1.18-.66,2.47-1.19,3.83-1.58.93-.26,1.57-1.11,1.57-2.08v-4.31h6.7v4.31c0,.97.64,1.81,1.57,2.08,1.35.39,2.64.92,3.83,1.58.84.47,1.9.33,2.58-.36l3.05-3.05,4.74,4.74-3.05,3.05c-.68.68-.83,1.74-.36,2.58.66,1.18,1.19,2.47,1.58,3.83.27.93,1.11,1.57,2.08,1.57h4.31v6.7Z"/>
        <path class="cls-1" d="M28,51.17c-8.18,0-14.84,6.66-14.84,14.84s6.66,14.84,14.84,14.84,14.84-6.66,14.84-14.84-6.66-14.84-14.84-14.84ZM28,76.53c-5.8,0-10.52-4.72-10.52-10.52s4.72-10.52,10.52-10.52,10.52,4.72,10.52,10.52-4.72,10.52-10.52,10.52Z"/>
      </g>
      <g>
        <path class="cls-1" d="M114.27,24.66l-5.78-1.78c-.07-.16-.13-.32-.2-.48l2.95-5.27c.47-.84.33-1.9-.36-2.58l-9.4-9.4c-.67-.67-1.7-.82-2.54-.38l-5.35,2.83c-.16-.07-.32-.13-.47-.2l-1.64-5.81c-.26-.93-1.11-1.58-2.08-1.58h-13.29c-.95,0-1.79.62-2.06,1.52l-1.79,5.78c-.23.09-.46.19-.68.28l-5.35-2.83c-.84-.44-1.87-.29-2.54.38l-9.4,9.4c-.68.68-.83,1.74-.36,2.58l2.95,5.27c-.07.16-.13.32-.2.48l-5.78,1.78c-.91.28-1.52,1.12-1.52,2.06v13.29c0,.97.64,1.82,1.57,2.08l5.81,1.64c.06.16.13.32.2.48l-2.82,5.35c-.44.84-.29,1.87.38,2.54l9.4,9.4c.68.68,1.74.83,2.59.36l5.27-2.95c.16.07.32.13.48.2l1.78,5.78c.28.91,1.12,1.52,2.06,1.52h13.29c.97,0,1.82-.64,2.08-1.58l1.64-5.81c.09-.04.18-.07.27-.11l5.27,2.95c.85.47,1.9.33,2.59-.36l9.4-9.4c.67-.67.83-1.7.38-2.54l-2.83-5.35c.07-.16.14-.32.2-.48l5.81-1.64c.93-.26,1.57-1.11,1.57-2.08v-13.29c0-.95-.62-1.79-1.52-2.06ZM111.47,38.37l-5.28,1.49c-.67.19-1.21.69-1.45,1.35-.26.73-.56,1.44-.89,2.13-.3.62-.28,1.34.04,1.94l2.58,4.88-7.11,7.11-4.78-2.68c-.61-.34-1.34-.37-1.98-.07-.65.3-1.31.58-1.98.82-.66.24-1.16.78-1.35,1.45l-1.49,5.28h-10.06l-1.63-5.27c-.2-.65-.7-1.17-1.34-1.4-.73-.26-1.45-.55-2.15-.88-.63-.29-1.37-.27-1.97.07l-4.78,2.68-7.11-7.11,2.57-4.88c.32-.6.34-1.32.04-1.94-.33-.69-.63-1.41-.89-2.14-.24-.66-.78-1.16-1.45-1.34l-5.28-1.49v-10.06l5.27-1.62c.65-.2,1.17-.7,1.4-1.35.26-.73.55-1.45.88-2.15.3-.63.27-1.36-.07-1.97l-2.68-4.78,7.12-7.11,4.87,2.58c.6.32,1.33.33,1.94.04.74-.36,1.51-.68,2.3-.95.64-.23,1.14-.75,1.34-1.4l1.63-5.27h10.06l1.49,5.28c.19.67.69,1.21,1.34,1.45.73.26,1.44.56,2.14.89.62.3,1.34.28,1.94-.04l4.88-2.58,7.11,7.11-2.68,4.78c-.34.61-.37,1.35-.07,1.98.33.7.62,1.41.88,2.14.23.64.75,1.14,1.4,1.35l5.27,1.62v10.06Z"/>
        <path class="cls-1" d="M82.6,13.91c-10.64,0-19.29,8.65-19.29,19.29s8.65,19.29,19.29,19.29,19.29-8.65,19.29-19.29-8.65-19.29-19.29-19.29ZM74.79,45.94c.06-3.69,3.07-6.68,6.77-6.68h2.07c3.71,0,6.72,2.99,6.77,6.68-4.82,2.97-10.8,2.97-15.62,0ZM82.6,34.94c-2.41,0-4.36-1.96-4.36-4.36s1.96-4.36,4.36-4.36,4.36,1.96,4.36,4.36-1.96,4.36-4.36,4.36ZM94.17,42.68c-.87-2.7-2.72-4.94-5.16-6.3,1.4-1.54,2.27-3.57,2.27-5.8,0-4.79-3.9-8.68-8.68-8.68s-8.68,3.9-8.68,8.68c0,2.24.88,4.27,2.28,5.81-2.44,1.36-4.29,3.6-5.16,6.3-2.12-2.58-3.4-5.89-3.4-9.49,0-8.25,6.71-14.97,14.97-14.97s14.97,6.71,14.97,14.97c0,3.6-1.28,6.9-3.4,9.48Z"/>
      </g>
    </g>
  </g>
</svg>