<?xml version="1.0" encoding="UTF-8"?>
<svg version="1.1" xmlns="http://www.w3.org/2000/svg" width="514" height="299">
<path d="M0 0 C0.99 0.495 0.99 0.495 2 1 C2 1.66 2 2.32 2 3 C2.721875 3.268125 3.44375 3.53625 4.1875 3.8125 C9.49886401 6.05507592 12.51956942 8.39684988 16 13 C16.639375 13.639375 17.27875 14.27875 17.9375 14.9375 C28.86025784 25.86025784 33.75115831 39.76413143 35 55 C35.07927734 55.95326172 35.07927734 55.95326172 35.16015625 56.92578125 C35.77688459 71.16416164 31.43174357 86.53846557 23 98 C22.34 98 21.68 98 21 98 C20.72671875 98.5878125 20.4534375 99.175625 20.171875 99.78125 C17.05883241 105.67527731 12.55179291 109.5139905 7 113 C6.67 113.66 6.34 114.32 6 115 C6.59167969 115.19335938 7.18335938 115.38671875 7.79296875 115.5859375 C11.9146645 116.94414719 15.9950524 118.32050585 20 120 C20 120.66 20 121.32 20 122 C20.680625 122.2475 21.36125 122.495 22.0625 122.75 C29.37810946 125.8630253 34.22307747 129.50901167 39.1875 135.75 C40.80309077 138.07487388 40.80309077 138.07487388 43 139 C43 139.66 43 140.32 43 141 C43.5775 141.20625 44.155 141.4125 44.75 141.625 C48.66850794 144.01964374 50.57583774 147.72751322 52 152 C52.66 152 53.32 152 54 152 C54.33 151.01 54.66 150.02 55 149 C60.37142857 145 60.37142857 145 63 145 C63 144.34 63 143.68 63 143 C66.3 141.35 69.6 139.7 73 138 C70.61065015 135.06451304 68.31029463 132.29438208 65.5625 129.6875 C55.38551224 119.01407381 52.34381494 106.11273233 52.52954102 91.70898438 C53.02630189 79.36282085 56.57235251 68.94291903 64 59 C64.4228125 58.39542969 64.845625 57.79085937 65.28125 57.16796875 C68.01575051 53.51888868 71.23083705 51.3848763 75.1328125 49.17578125 C77.03429785 48.09941485 77.03429785 48.09941485 78.3125 46.5234375 C80.84930214 44.2332689 83.66977755 43.44076541 86.875 42.3125 C88.08929688 41.87550781 89.30359375 41.43851563 90.5546875 40.98828125 C93.60970953 40.11195407 95.85937785 39.77908171 99 40 C99 39.34 99 38.68 99 38 C104.94 38 110.88 38 117 38 C117 38.66 117 39.32 117 40 C118.258125 40.061875 119.51625 40.12375 120.8125 40.1875 C133.67574298 41.66162361 144.75495509 50.31816799 152.71484375 60.109375 C162.39989771 72.96817814 164.31612891 87.97032375 162.7265625 103.70703125 C160.67515761 115.68646168 155.48067518 124.51932482 147 133 C145.64444707 134.64864545 144.30368347 136.31003995 143 138 C146.3 139.65 149.6 141.3 153 143 C153 143.66 153 144.32 153 145 C153.72574219 145.24621094 154.45148438 145.49242187 155.19921875 145.74609375 C167.55230608 151.27655544 178.74536797 166.60087825 184.1953125 178.640625 C185 181 185 181 185 184 C185.66 184 186.32 184 187 184 C190.10112745 193.83318772 191.65137465 202.65321526 191.52148438 212.97949219 C191.49999396 215.00056763 191.52145398 217.01809171 191.546875 219.0390625 C191.59807367 241.30240082 191.59807367 241.30240082 185.37080145 247.66446263 C182.08760172 249.51397894 179.5807002 249.37733782 175.81912994 249.38031673 C175.09140064 249.38497665 174.36367134 249.38963657 173.61388963 249.3944377 C171.16221166 249.40643985 168.71108254 249.39697246 166.25939941 249.38768005 C164.48925516 249.39185069 162.71911358 249.39732671 160.94897699 249.40399987 C156.07440874 249.41850856 151.20000879 249.41419289 146.32543111 249.40683305 C141.07246242 249.40211709 135.81953098 249.41459721 130.5665741 249.42485046 C120.27194648 249.44207431 109.97737981 249.44287111 99.68274152 249.43763756 C91.31854277 249.43360156 82.95436207 249.43503262 74.59016418 249.44038582 C72.8067645 249.44150845 72.8067645 249.44150845 70.98733655 249.44265376 C68.5722926 249.44418519 66.15724866 249.44572353 63.74220473 249.44726873 C41.07866786 249.46100656 18.41516549 249.45554691 -4.24837059 249.44408352 C-24.99976498 249.4341481 -45.75107024 249.44709489 -66.50245088 249.47101771 C-87.79203975 249.49537678 -109.08158706 249.50502456 -130.37118959 249.49836498 C-142.33091606 249.49486587 -154.29057395 249.49715044 -166.25028992 249.51461601 C-176.43052894 249.52929806 -186.61065108 249.53002588 -196.79088771 249.5125451 C-201.98831818 249.50399998 -207.1855395 249.50197081 -212.38295937 249.51719666 C-217.13626645 249.53094951 -221.88918335 249.52640285 -226.64246732 249.50695742 C-228.36649786 249.50316803 -230.09055896 249.50620302 -231.8145625 249.51656907 C-234.14989559 249.52961777 -236.48385752 249.51826613 -238.81912994 249.50057125 C-240.11864295 249.50046391 -241.41815595 249.50035658 -242.75704813 249.50024599 C-246.55849956 248.91384788 -247.70776484 248.02576284 -250 245 C-253.50724021 236.07957317 -253.50016386 226.33697668 -253.44604492 216.88964844 C-253.43753334 214.63383526 -253.46641993 212.38056542 -253.49804688 210.125 C-253.54335431 200.14022093 -252.07426396 191.51878039 -249 182 C-248.34 182 -247.68 182 -247 182 C-246.9175 181.34 -246.835 180.68 -246.75 180 C-244.12293959 169.49175836 -236.53317182 159.44982218 -228 153 C-227.360625 152.34 -226.72125 151.68 -226.0625 151 C-219.875 145 -219.875 145 -216 145 C-216 144.34 -216 143.68 -216 143 C-214.73308493 142.32591692 -213.46129251 141.66099503 -212.1875 141 C-211.47980469 140.62875 -210.77210938 140.2575 -210.04296875 139.875 C-208 139 -208 139 -205 139 C-205.93274109 137.87105124 -206.87140122 136.74699124 -207.8125 135.625 C-208.33457031 134.99851563 -208.85664063 134.37203125 -209.39453125 133.7265625 C-211.08225739 131.7778952 -211.08225739 131.7778952 -214 130 C-215.03789581 128.35666496 -216.03567924 126.68756133 -217 125 C-217.70962891 124.15308594 -217.70962891 124.15308594 -218.43359375 123.2890625 C-220.47007047 120.3130641 -221.48770015 117.15669777 -222.5625 113.75 C-222.77865967 113.07831787 -222.99481934 112.40663574 -223.2175293 111.71459961 C-223.82303946 109.81331152 -224.41205534 107.90679313 -225 106 C-225.25265625 105.18144531 -225.5053125 104.36289063 -225.765625 103.51953125 C-227.84579714 96.07548666 -227.18383308 89.32423742 -225.25 82 C-225.06808105 81.29866943 -224.88616211 80.59733887 -224.69873047 79.87475586 C-223.34234832 74.84771573 -221.76587093 70.40242432 -219 66 C-218.53464844 65.24203125 -218.06929687 64.4840625 -217.58984375 63.703125 C-209.81662039 51.53634061 -198.8979502 43.95262804 -185 40 C-182.11328125 39.87109375 -182.11328125 39.87109375 -180 40 C-180 39.34 -180 38.68 -180 38 C-160.72125709 37.43848322 -160.72125709 37.43848322 -153 41 C-150.81306232 41.8972052 -148.62553435 42.7929726 -146.4375 43.6875 C-144.62365291 44.45515813 -142.8106686 45.22487453 -141 46 C-141 46.66 -141 47.32 -141 48 C-140.443125 48.268125 -139.88625 48.53625 -139.3125 48.8125 C-138.549375 49.204375 -137.78625 49.59625 -137 50 C-136.236875 50.350625 -135.47375 50.70125 -134.6875 51.0625 C-130.5846823 54.02034532 -127.97675344 57.95572119 -125 62 C-124.53207031 62.54527344 -124.06414062 63.09054688 -123.58203125 63.65234375 C-114.44263713 74.70398033 -115.03829232 90.51078445 -116 104 C-117.1090256 114.63012838 -122.77441438 125.89413145 -131.16796875 132.72265625 C-132.56982422 133.84994141 -132.56982422 133.84994141 -134 135 C-134.66 135.99 -135.32 136.98 -136 138 C-131.05 140.475 -131.05 140.475 -126 143 C-126 143.66 -126 144.32 -126 145 C-124.9171875 145.37125 -124.9171875 145.37125 -123.8125 145.75 C-120.75286734 147.10983674 -118.5326262 148.82917754 -116 151 C-113.46441571 148.60147432 -111.2701055 146.46143023 -109.5 143.4375 C-107.71804441 140.54182216 -105.69566709 139.05384159 -103 137 C-100.51450236 134.5766398 -98.10454089 132.11325264 -95.75 129.5625 C-89.35301574 123.60167376 -77.9754307 115 -69 115 C-71.38121349 112.55075184 -73.71154981 110.22274505 -76.41796875 108.1328125 C-82.34547429 103.23656738 -86.7959304 96.9421508 -90 90 C-90.66 89.67 -91.32 89.34 -92 89 C-92.76903639 86.94536693 -93.44206745 84.85428075 -94.0625 82.75 C-94.40410156 81.61046875 -94.74570313 80.4709375 -95.09765625 79.296875 C-98.77797943 65.85015309 -98.84302855 49.1230451 -94 36 C-93.54625 34.7625 -93.0925 33.525 -92.625 32.25 C-87.05002856 21.10005711 -78.22018133 8.9053586 -67 3 C-66.34 3 -65.68 3 -65 3 C-65 2.34 -65 1.68 -65 1 C-45.82606002 -9.31026676 -19.40005746 -10.49988118 0 0 Z M-54 16 C-54 16.66 -54 17.32 -54 18 C-55.3303125 18.3403125 -55.3303125 18.3403125 -56.6875 18.6875 C-60.58297392 20.23098967 -62.2171215 21.87774607 -65 25 C-65.58136719 25.62519531 -66.16273438 26.25039063 -66.76171875 26.89453125 C-72.91903303 33.50276757 -72.91903303 33.50276757 -75 42 C-75.66 42 -76.32 42 -77 42 C-78.64333364 47.76803561 -79.35716587 52.94844451 -79.3125 58.9375 C-79.30686035 59.73236816 -79.3012207 60.52723633 -79.29541016 61.34619141 C-79.17644172 67.0790566 -78.53252282 71.80265839 -76 77 C-75.55140625 77.99773437 -75.1028125 78.99546875 -74.640625 80.0234375 C-72.06977075 85.49644166 -69.75069808 90.10199132 -65 94 C-64.236875 94.66 -63.47375 95.32 -62.6875 96 C-61.800625 96.66 -60.91375 97.32 -60 98 C-59.47148437 98.4021875 -58.94296875 98.804375 -58.3984375 99.21875 C-48.74878288 105.95297705 -36.5819838 108.38108662 -25 107 C-17.90061977 105.46963938 -11.43247298 103.38602273 -5 100 C-5 99.34 -5 98.68 -5 98 C-3.88625 97.62875 -3.88625 97.62875 -2.75 97.25 C0.23023087 95.89534961 1.89919252 94.4898459 4 92 C4 91.34 4 90.68 4 90 C4.60328125 89.78214844 5.2065625 89.56429687 5.828125 89.33984375 C8.7467229 87.53934181 9.40576017 85.68661294 10.75 82.5625 C11.17796875 81.59441406 11.6059375 80.62632813 12.046875 79.62890625 C13.17042281 76.99599935 13.17042281 76.99599935 13 74 C13.66 74 14.32 74 15 74 C17.23938431 63.72844388 17.21562313 54.28276377 15 44 C14.34 44 13.68 44 13 44 C12.690625 42.2984375 12.690625 42.2984375 12.375 40.5625 C10.42335478 32.7559191 4.90262793 25.23999759 -1.796875 20.8125 C-5.17004769 18.69064096 -5.17004769 18.69064096 -9 18 C-9 17.34 -9 16.68 -9 16 C-23.39822904 9.40081169 -39.57655009 9.77811965 -54 16 Z M-190 61 C-190 61.66 -190 62.32 -190 63 C-190.70125 63.185625 -191.4025 63.37125 -192.125 63.5625 C-196.04135028 65.52067514 -198.5338864 68.40676231 -201 72 C-201 72.66 -201 73.32 -201 74 C-201.66 74 -202.32 74 -203 74 C-203.65134925 75.56020867 -204.29582964 77.12328579 -204.9375 78.6875 C-205.29714844 79.55761719 -205.65679687 80.42773438 -206.02734375 81.32421875 C-209.60216474 91.15856565 -207.9516246 100.19693592 -205 110 C-204.67 110.66 -204.34 111.32 -204 112 C-203.34 112 -202.68 112 -202 112 C-201.61908203 113.10988281 -201.61908203 113.10988281 -201.23046875 114.2421875 C-198.73905031 119.82612852 -193.77372926 124.50402522 -188.1875 127 C-185.07970709 128.14967004 -185.07970709 128.14967004 -182 128 C-182 128.66 -182 129.32 -182 130 C-178.3226718 131.15835838 -174.83678577 131.13312878 -171 131.125 C-169.783125 131.12757813 -168.56625 131.13015625 -167.3125 131.1328125 C-164.65249989 131.02616155 -162.51771029 130.79307874 -160 130 C-160 129.34 -160 128.68 -160 128 C-158.7625 127.9071875 -158.7625 127.9071875 -157.5 127.8125 C-153.08929114 126.78858544 -149.51558698 124.86422188 -146 122 C-146 121.34 -146 120.68 -146 120 C-145.42636719 119.81179687 -144.85273438 119.62359375 -144.26171875 119.4296875 C-141.00363111 117.37017096 -139.56354632 114.44878337 -137.8125 111.125 C-137.28197021 110.11832275 -137.28197021 110.11832275 -136.74072266 109.09130859 C-132.77002453 101.11778389 -131.80406287 92.96035123 -134.140625 84.29296875 C-137.41226777 75.56363101 -142.10533717 68.1723653 -150 63 C-150.66 63 -151.32 63 -152 63 C-152 62.34 -152 61.68 -152 61 C-164.83712938 55.02179422 -177.05678662 55.60096872 -190 61 Z M78.6875 70.4375 C72.79595661 77.70373684 70.82097681 84.63527614 70.8125 93.875 C70.80025391 94.56980469 70.78800781 95.26460937 70.77539062 95.98046875 C70.76297126 100.37692393 71.38091593 103.91709235 73 108 C73.66 108 74.32 108 75 108 C75.0825 108.70125 75.165 109.4025 75.25 110.125 C76.18480138 113.70840529 77.74402615 116.08050443 80 119 C80.99 119.33 81.98 119.66 83 120 C83.46792969 120.95132813 83.46792969 120.95132813 83.9453125 121.921875 C85.23798064 124.46891001 86.32587692 125.03796412 88.875 126.25 C89.55304688 126.58515625 90.23109375 126.9203125 90.9296875 127.265625 C93.26219223 128.22287197 93.26219223 128.22287197 97 128 C97 128.66 97 129.32 97 130 C100.6773282 131.15835838 104.16321423 131.13312878 108 131.125 C109.216875 131.12757813 110.43375 131.13015625 111.6875 131.1328125 C114.34750011 131.02616155 116.48228971 130.79307874 119 130 C119 129.34 119 128.68 119 128 C119.845625 127.9175 120.69125 127.835 121.5625 127.75 C130.30676138 125.84216115 135.28419273 120.29675632 140.2578125 113.20703125 C145.51968693 104.69059004 146.0751759 95.10041903 144.60546875 85.39453125 C142.38264473 76.37416796 136.54438536 68.35327674 129 63 C128.34 63 127.68 63 127 63 C127 62.34 127 61.68 127 61 C125.75108386 60.51801537 124.50081192 60.03954323 123.25 59.5625 C122.55390625 59.29566406 121.8578125 59.02882813 121.140625 58.75390625 C104.86324446 53.02117916 89.95128982 58.06997198 78.6875 70.4375 Z M-62 131 C-62.82886719 131.28617188 -63.65773437 131.57234375 -64.51171875 131.8671875 C-82.10680221 138.10971318 -98.0666164 154.38604431 -106 171 C-109.36855294 178.12102185 -110.99698339 185.17322638 -112.38671875 192.875 C-113 196 -113 196 -114 198 C-114.27050457 201.45180229 -114.23175919 204.91380718 -114.25 208.375 C-114.2809375 209.78458984 -114.2809375 209.78458984 -114.3125 211.22265625 C-114.35472976 218.96126024 -112.98080619 224.07677522 -111 232 C-58.53 232 -6.06 232 48 232 C49.62187407 225.01948834 49.62187407 225.01948834 50.625 218.0625 C50.69976562 217.33160156 50.77453125 216.60070312 50.8515625 215.84765625 C51.59062361 201.66935233 50.64457846 185.79024659 44 173 C43.59136719 172.14921875 43.18273437 171.2984375 42.76171875 170.421875 C39.97084778 164.91874915 36.66281429 159.96121233 32.9375 155.0625 C32.32044189 154.24688599 32.32044189 154.24688599 31.69091797 153.41479492 C29.10569969 150.11043089 26.44032108 147.4076446 23 145 C22.34 145 21.68 145 21 145 C21 144.34 21 143.68 21 143 C12.94562854 136.98883306 2.33933173 130 -8 130 C-8 129.34 -8 128.68 -8 128 C-25.68783477 123.17604506 -45.08564167 123.98482834 -62 131 Z M-195.375 154.0625 C-196.08527344 154.33126953 -196.79554688 154.60003906 -197.52734375 154.87695312 C-201.31731323 156.3137654 -201.31731323 156.3137654 -205 158 C-205 158.66 -205 159.32 -205 160 C-205.8765625 160.22558594 -206.753125 160.45117188 -207.65625 160.68359375 C-218.9655433 165.1359674 -226.50269339 178.39551938 -231.25 188.9375 C-236.80494061 202.57764213 -237.2538565 216.51777313 -235 231 C-234.02869406 232.18986791 -234.02869406 232.18986791 -232.25274563 232.12304783 C-231.48673566 232.12212604 -230.72072569 232.12120424 -229.9315033 232.12025452 C-228.61683327 232.12231651 -228.61683327 232.12231651 -227.27560425 232.12442017 C-226.30672272 232.12082489 -225.33784119 232.11722961 -224.33959961 232.11352539 C-223.32508224 232.11367142 -222.31056488 232.11381744 -221.26530457 232.1139679 C-217.89429627 232.11326829 -214.52334246 232.10547368 -211.15234375 232.09765625 C-208.82206757 232.09579224 -206.491791 232.09436826 -204.16151428 232.09336853 C-198.01462735 232.08954202 -191.86776387 232.0797106 -185.72088623 232.06866455 C-179.45390134 232.05845329 -173.18691268 232.05387152 -166.91992188 232.04882812 C-154.61327092 232.03808845 -142.30663741 232.02101044 -130 232 C-130.21112427 230.27777222 -130.21112427 230.27777222 -130.42651367 228.52075195 C-130.61129611 226.98911082 -130.79594046 225.45745302 -130.98046875 223.92578125 C-131.11962708 222.79517273 -131.11962708 222.79517273 -131.26159668 221.64172363 C-133.13751424 205.97802375 -132.97821013 187.27589243 -125.671875 172.875 C-124.81849487 170.49347405 -125.09609696 169.33668551 -126 167 C-134.8024528 156.5470873 -149.58447166 150.55133573 -163 149 C-165.63803958 148.88353624 -168.23805184 148.81501138 -170.875 148.8125 C-171.54402344 148.80025391 -172.21304688 148.78800781 -172.90234375 148.77539062 C-180.93727106 148.75216829 -187.94948797 151.19956806 -195.375 154.0625 Z M85 153 C84.19304687 153.28875 83.38609375 153.5775 82.5546875 153.875 C75.591616 156.6702115 66.57859054 160.91892364 62.51171875 167.35546875 C61.80699478 170.9974392 62.80911398 172.9786258 64.25 176.375 C68.34542944 186.84232608 69.14571039 197.41696834 69.25 208.5625 C69.25942627 209.29299561 69.26885254 210.02349121 69.27856445 210.77612305 C69.23607554 218.09143206 68.06319813 224.55761306 67 232 C101.32 232 135.64 232 171 232 C175.69323326 215.57368358 173.96317392 197.92218184 165.81494141 182.80078125 C155.58817582 165.45201552 140.96535446 155.7720644 122 150 C109.39643573 147.29686714 97.01578896 148.59726817 85 153 Z " fill="#FFAA05" transform="translate(288,28)"/>
</svg>
