<?xml version="1.0" encoding="UTF-8"?>
<svg id="Layer_2" data-name="Layer 2" xmlns="http://www.w3.org/2000/svg" viewBox="0 0 195.01 27.39">
  <defs>
    <style>
      .cls-1 {
        fill: #00c8f9;
      }

      .cls-2 {
        fill: #00ce8e;
      }

      .cls-3 {
        fill: #ffaa05;
      }

      .cls-4 {
        fill: #0050c3;
      }
    </style>
  </defs>
  <g id="OBJECTS">
    <g>
      <g>
        <path class="cls-4" d="M20.98,5.56v-.37c0-2.87-2.32-5.19-5.19-5.19H5.19C2.32,0,0,2.32,0,5.19v.37c0,.12,0,.24.01.37h-.01v10.32h0c.1,2.77,2.38,4.99,5.18,4.99h10.61c2.87,0,5.19-2.32,5.19-5.19v-.37c0-2.47-1.73-4.54-4.05-5.06,2.32-.52,4.05-2.59,4.05-5.06Z"/>
        <path class="cls-3" d="M15.32,7.19H3.72v-1.52c0-1.12.91-2.03,2.03-2.03h11.59v1.52c0,1.12-.91,2.03-2.03,2.03Z"/>
        <path class="cls-2" d="M11.94,12.41H3.88c-.09,0-.16-.07-.16-.16v-1.34c0-1.12.91-2.03,2.03-2.03h6.19c.97,0,1.76.79,1.76,1.76h0c0,.97-.79,1.76-1.76,1.76Z"/>
        <circle class="cls-1" cx="5.5" cy="15.91" r="1.78"/>
      </g>
      <g>
        <path d="M42.89,9.49c1.33.62,2.32,1.41,2.99,2.35.66.95,1,1.96,1,3.05,0,1.91-.7,3.44-2.1,4.59-1.4,1.15-3.33,1.72-5.81,1.72h-8.42V.08h8.09c1.93,0,3.5.47,4.71,1.42,1.21.95,1.81,2.35,1.81,4.22,0,1.75-.75,3.01-2.26,3.77ZM34.95,8.04h3.68c.68,0,1.22-.18,1.61-.54s.59-.89.59-1.57-.2-1.18-.6-1.55c-.4-.37-.94-.56-1.6-.56h-3.68v4.22ZM39.48,17.46c1.03,0,1.8-.27,2.31-.81.51-.54.77-1.21.77-1.99,0-.74-.26-1.41-.78-1.99-.52-.58-1.29-.88-2.29-.88h-4.53v5.67h4.53Z"/>
        <path d="M59.25,5.36c.66,0,1.16.04,1.48.12v4.01c-.34-.06-.85-.09-1.51-.09-1.35,0-2.49.46-3.43,1.39-.94.93-1.47,2.13-1.61,3.62v6.79h-4.28V5.51h4.28v5.04c.18-1.57.68-2.83,1.51-3.77.82-.95,2.01-1.42,3.56-1.42Z"/>
        <path d="M67.76.08v3.83h-4.41V.08h4.41ZM67.76,5.51v15.69h-4.41V5.51h4.41Z"/>
        <path d="M82.21,5.51h4.32v15.69c0,1.09-.26,2.05-.77,2.9-.51.85-1.17,1.49-1.98,1.95-.8.45-1.62.79-2.46,1.01-.84.22-1.64.33-2.4.33-.3,0-.6-.02-.91-.05s-.56-.06-.78-.09c-.22-.03-.45-.08-.69-.14-.24-.06-.44-.12-.59-.17-.15-.05-.33-.12-.54-.2-.21-.08-.36-.14-.44-.18-.08-.04-.22-.11-.41-.2-.19-.09-.3-.15-.32-.17v-3.71c1.65.82,3.21,1.24,4.68,1.24,1.05,0,1.86-.26,2.43-.77.57-.51.86-1.1.86-1.77v-2.08c-.02.4-.42.89-1.21,1.45-.78.56-1.73.84-2.84.84-.85,0-1.69-.17-2.53-.5-.85-.33-1.63-.81-2.35-1.45-.72-.63-1.31-1.48-1.77-2.55-.45-1.07-.68-2.26-.68-3.59,0-2.47.76-4.43,2.28-5.85,1.52-1.43,3.2-2.14,5.05-2.14,1.13,0,2.08.24,2.85.71.77.47,1.17.91,1.19,1.31v-1.84ZM76.26,16.52c.74.78,1.62,1.18,2.63,1.18s1.84-.36,2.5-1.07c.66-.71,1-1.82,1-3.3s-.33-2.58-1-3.27c-.66-.69-1.5-1.04-2.5-1.04s-1.88.39-2.63,1.18-1.12,1.83-1.12,3.14.37,2.41,1.12,3.2Z"/>
        <path d="M99.41,5.36c1.63,0,3.02.56,4.16,1.69,1.15,1.13,1.72,2.84,1.72,5.13v9.02h-4.32v-8.75c0-2.27-.85-3.41-2.54-3.41-.8,0-1.54.26-2.2.77-.66.51-1.14,1.01-1.42,1.49-.28.48-.45.87-.51,1.15v8.75h-4.32V.08h4.32v8.39c.08-.6.59-1.27,1.54-2.01.95-.73,2.13-1.1,3.56-1.1Z"/>
        <path d="M117.31,9.01h-3.35v7.15c0,1.01.43,1.51,1.3,1.51.76,0,1.44-.12,2.02-.36v3.53c-.72.36-1.74.54-3.05.54-1.45,0-2.58-.37-3.38-1.1-.81-.73-1.21-2.1-1.21-4.09v-7.18h-1.54v-3.5h1.54v-2.72h4.32v2.72h3.35v3.5Z"/>
        <path d="M133.6,3.94h-9.08v4.95h7.76v3.92h-7.76v8.39h-4.53V.08h13.61v3.86Z"/>
        <path d="M141.55,5.84c.92-.34,1.8-.51,2.64-.51s1.72.17,2.63.51c.91.34,1.77.83,2.58,1.46s1.48,1.48,2.01,2.55c.52,1.07.78,2.25.78,3.56s-.26,2.49-.78,3.55c-.52,1.06-1.19,1.9-2.01,2.52-.81.62-1.67,1.1-2.58,1.43-.91.33-1.78.5-2.63.5s-1.72-.17-2.63-.5c-.91-.33-1.77-.81-2.6-1.43-.83-.62-1.5-1.46-2.02-2.52-.52-1.06-.78-2.24-.78-3.55s.26-2.49.78-3.56c.52-1.07,1.19-1.92,2.01-2.55s1.68-1.12,2.6-1.46ZM144.19,9.01c-.99,0-1.85.39-2.6,1.18s-1.12,1.86-1.12,3.23.37,2.37,1.12,3.14c.74.76,1.61,1.15,2.6,1.15s1.82-.38,2.56-1.15c.74-.76,1.12-1.81,1.12-3.14s-.37-2.44-1.12-3.23c-.74-.78-1.6-1.18-2.56-1.18Z"/>
        <path d="M164.41,5.36c.66,0,1.16.04,1.48.12v4.01c-.34-.06-.85-.09-1.51-.09-1.35,0-2.49.46-3.43,1.39-.94.93-1.47,2.13-1.61,3.62v6.79h-4.28V5.51h4.28v5.04c.18-1.57.68-2.83,1.51-3.77.82-.95,2.01-1.42,3.56-1.42Z"/>
        <path d="M177,9.01h-3.35v7.15c0,1.01.43,1.51,1.3,1.51.76,0,1.44-.12,2.02-.36v3.53c-.72.36-1.74.54-3.05.54-1.45,0-2.58-.37-3.38-1.1-.81-.73-1.21-2.1-1.21-4.09v-7.18h-1.54v-3.5h1.54v-2.72h4.32v2.72h3.35v3.5Z"/>
        <path d="M187.17,5.33c.86,0,1.75.17,2.64.51.9.34,1.74.83,2.54,1.46.79.63,1.44,1.48,1.93,2.55.49,1.07.74,2.25.74,3.56,0,.58-.04,1.11-.12,1.57h-11.23c.24.83.71,1.48,1.4,1.98.69.49,1.43.74,2.22.74,1.23,0,2.14-.32,2.75-.97l3.56,1.81c-1.67,1.91-3.78,2.87-6.34,2.87-.85,0-1.72-.17-2.63-.5-.91-.33-1.77-.81-2.6-1.43-.83-.62-1.5-1.46-2.02-2.52-.52-1.06-.78-2.24-.78-3.55s.25-2.49.75-3.56c.5-1.07,1.15-1.92,1.95-2.55s1.65-1.12,2.55-1.46c.91-.34,1.8-.51,2.69-.51ZM187.17,9.07c-.78,0-1.49.23-2.13.69-.63.46-1.07,1.12-1.31,1.96h6.91c-.22-.84-.66-1.5-1.33-1.96-.66-.46-1.38-.69-2.14-.69Z"/>
      </g>
    </g>
  </g>
</svg>