<?xml version="1.0" encoding="UTF-8"?>
<svg version="1.1" xmlns="http://www.w3.org/2000/svg" width="79" height="79">
<path d="M0 0 C0.87891907 -0.03220139 1.75783813 -0.06440277 2.66339111 -0.09757996 C6.7368868 -0.20876268 10.81022414 -0.29086932 14.88476562 -0.35253906 C17.02066676 -0.39396123 19.15628782 -0.45509296 21.29101562 -0.53710938 C24.3860848 -0.65405457 27.47629447 -0.70303591 30.57324219 -0.73950195 C31.50920227 -0.78797775 32.44516235 -0.83645355 33.40948486 -0.88639832 C40.94238802 -0.86608273 46.78247801 2.13212241 52.28442383 7.10414124 C56.22043413 11.33789338 56.45298955 16.18011267 56.36862183 21.74720764 C56.30557506 23.19441487 56.24093273 24.64155334 56.17480469 26.08862305 C56.15304983 27.59644176 56.13696249 29.10435182 56.12625122 30.61228943 C56.08261008 34.55202357 55.96012261 38.48542905 55.82104492 42.42279053 C55.69433178 46.44796992 55.64840889 50.4740622 55.59277344 54.50073242 C55.49779808 60.36009242 55.38020456 66.21808813 55.18994141 72.07519531 C55.15295135 73.25082535 55.1159613 74.42645538 55.07785034 75.63771057 C54.87011719 78.2722168 54.87011719 78.2722168 53.87011719 79.2722168 C52.06502346 79.37121241 50.25604791 79.4002083 48.44824219 79.40161133 C47.2903418 79.40476349 46.13244141 79.40791565 44.93945312 79.41116333 C43.04888184 79.40812698 43.04888184 79.40812698 41.12011719 79.4050293 C39.8365332 79.40598602 38.55294922 79.40694275 37.23046875 79.40792847 C34.51007895 79.40940511 31.78972193 79.40725199 29.06933594 79.40258789 C25.5752705 79.3968906 22.08128186 79.40016979 18.58721924 79.40616035 C15.26484566 79.41063434 11.94249295 79.40750565 8.62011719 79.4050293 C7.35973633 79.40705353 6.09935547 79.40907776 4.80078125 79.41116333 C3.64288086 79.40801117 2.48498047 79.40485901 1.29199219 79.40161133 C0.26686523 79.40081573 -0.75826172 79.40002014 -1.81445312 79.39920044 C-4.12988281 79.2722168 -4.12988281 79.2722168 -5.12988281 78.2722168 C-5.20301848 75.74172278 -5.22235808 73.23916843 -5.19238281 70.7097168 C-5.18787109 69.99879883 -5.18335937 69.28788086 -5.17871094 68.55541992 C-5.16689145 66.79431666 -5.14895544 65.03325644 -5.12988281 63.2722168 C-3.19238281 62.7097168 -3.19238281 62.7097168 -1.12988281 62.2722168 C1.94329867 65.34539828 -0.12988281 70.92608186 -0.12988281 75.2722168 C16.70011719 75.2722168 33.53011719 75.2722168 50.87011719 75.2722168 C50.87011719 55.1422168 50.87011719 35.0122168 50.87011719 14.2722168 C46.91011719 14.2722168 42.95011719 14.2722168 38.87011719 14.2722168 C38.37511719 13.7772168 38.37511719 13.7772168 37.87011719 13.2722168 C37.87011719 10.3022168 37.87011719 7.3322168 37.87011719 4.2722168 C25.33011719 4.2722168 12.79011719 4.2722168 -0.12988281 4.2722168 C-0.12988281 8.2322168 -0.12988281 12.1922168 -0.12988281 16.2722168 C-1.44988281 16.6022168 -2.76988281 16.9322168 -4.12988281 17.2722168 C-5.88548223 15.51661738 -5.26210201 13.23639238 -5.26660156 10.90112305 C-5.26273438 10.19858398 -5.25886719 9.49604492 -5.25488281 8.7722168 C-5.25875 8.06967773 -5.26261719 7.36713867 -5.26660156 6.64331055 C-5.25416599 0.18924683 -5.25416599 0.18924683 0 0 Z M41.87011719 7.2722168 C41.87011719 8.2622168 41.87011719 9.2522168 41.87011719 10.2722168 C43.19011719 9.9422168 44.51011719 9.6122168 45.87011719 9.2722168 C44.55011719 8.6122168 43.23011719 7.9522168 41.87011719 7.2722168 Z " fill="#FFAA05" transform="translate(24.1298828125,-0.272216796875)"/>
<path d="M0 0 C4.8294161 3.1168572 6.93032935 6.90642719 8.203125 12.421875 C9.002243 18.93589751 8.08256388 24.05381423 4.203125 29.421875 C-1.50157988 35.38588465 -5.99266982 36.52419113 -14.10546875 37.04296875 C-16.78224336 37.4198151 -18.44008316 38.1652558 -20.796875 39.421875 C-23.546875 39.546875 -23.546875 39.546875 -25.796875 39.421875 C-25.6421875 37.9059375 -25.6421875 37.9059375 -25.484375 36.359375 C-25.83703983 31.91579818 -26.87279958 30.3321436 -29.60546875 27 C-33.07635713 22.40249539 -32.40974067 15.85503246 -31.796875 10.421875 C-29.37938652 4.19257897 -25.0766574 -0.12044393 -18.984375 -2.828125 C-11.4024806 -4.61210015 -6.76121067 -3.69170398 0 0 Z M-25.109375 7.609375 C-27.44729325 11.50590542 -28.12865319 14.8900866 -27.796875 19.421875 C-26.59228717 23.11893447 -25.00861673 26.28514585 -22.15625 28.9609375 C-20.796875 30.421875 -20.796875 30.421875 -20.796875 33.421875 C-12.7083995 33.28624508 -5.99469037 33.04611362 0.203125 27.421875 C3.3601981 23.6537555 4.50048465 19.31479282 4.203125 14.421875 C2.58911673 9.159635 -0.04574444 5.31890583 -4.796875 2.421875 C-7.48194829 1.63240891 -7.48194829 1.63240891 -9.796875 1.421875 C-9.136875 1.751875 -8.476875 2.081875 -7.796875 2.421875 C-7.71597958 5.19329217 -7.65643438 7.96235319 -7.609375 10.734375 C-7.58423828 11.52005859 -7.55910156 12.30574219 -7.53320312 13.11523438 C-7.52353516 13.87255859 -7.51386719 14.62988281 -7.50390625 15.41015625 C-7.4881958 16.10665283 -7.47248535 16.80314941 -7.45629883 17.52075195 C-7.89449057 19.96677283 -8.93124858 20.84889586 -10.796875 22.421875 C-9.806875 23.081875 -8.816875 23.741875 -7.796875 24.421875 C-7.546875 26.984375 -7.546875 26.984375 -7.796875 29.421875 C-8.796875 30.421875 -8.796875 30.421875 -11.796875 30.546875 C-14.796875 30.421875 -14.796875 30.421875 -15.796875 29.421875 C-15.984375 26.484375 -15.984375 26.484375 -15.796875 23.421875 C-15.136875 22.761875 -14.476875 22.101875 -13.796875 21.421875 C-14.456875 20.761875 -15.116875 20.101875 -15.796875 19.421875 C-15.99539602 16.71264699 -16.07526977 14.12884321 -16.046875 11.421875 C-16.05460937 10.68453125 -16.06234375 9.9471875 -16.0703125 9.1875 C-16.0501946 3.6751946 -16.0501946 3.6751946 -13.796875 1.421875 C-18.69559696 1.421875 -21.65566661 4.34235355 -25.109375 7.609375 Z M-12.796875 6.421875 C-12.796875 9.721875 -12.796875 13.021875 -12.796875 16.421875 C-12.136875 16.421875 -11.476875 16.421875 -10.796875 16.421875 C-10.796875 13.121875 -10.796875 9.821875 -10.796875 6.421875 C-11.456875 6.421875 -12.116875 6.421875 -12.796875 6.421875 Z " fill="#FFAA05" transform="translate(31.796875,22.578125)"/>
<path d="M0 0 C1.12276085 -0.00855011 1.12276085 -0.00855011 2.26820374 -0.01727295 C3.85448792 -0.02673535 5.44079187 -0.03326184 7.02709961 -0.03710938 C9.45916864 -0.04682114 11.89039496 -0.07783387 14.32226562 -0.109375 C15.86067204 -0.11590415 17.39908453 -0.12115497 18.9375 -0.125 C19.66774887 -0.1373468 20.39799774 -0.1496936 21.15037537 -0.16241455 C23.20288086 -0.15332031 23.20288086 -0.15332031 26.53515625 0.203125 C27.19515625 1.193125 27.85515625 2.183125 28.53515625 3.203125 C26.53515625 5.203125 26.53515625 5.203125 23.18701172 5.43017578 C21.75874992 5.42985875 20.33046413 5.41853861 18.90234375 5.3984375 C17.7745903 5.39419266 17.7745903 5.39419266 16.62405396 5.38986206 C14.21926047 5.37865374 11.81483744 5.35354852 9.41015625 5.328125 C7.78125537 5.31809602 6.15234867 5.30897003 4.5234375 5.30078125 C0.52720069 5.27871235 -3.46875869 5.24417851 -7.46484375 5.203125 C-8.02734375 3.265625 -8.02734375 3.265625 -8.46484375 1.203125 C-6.4961242 -0.76559455 -2.69178934 0.01562228 0 0 Z " fill="#FFAA05" transform="translate(39.46484375,57.796875)"/>
<path d="M0 0 C11.55 0 23.1 0 35 0 C35 0.99 35 1.98 35 3 C34 4 34 4 30.76538086 4.11352539 C29.33185874 4.11336631 27.89833088 4.10767407 26.46484375 4.09765625 C25.33496788 4.09553383 25.33496788 4.09553383 24.18226624 4.09336853 C21.7673044 4.08775376 19.35243399 4.07519883 16.9375 4.0625 C15.30403779 4.0574869 13.67057414 4.05292366 12.03710938 4.04882812 C8.02470415 4.03777954 4.01236759 4.02050506 0 4 C0 2.68 0 1.36 0 0 Z " fill="#FFAA05" transform="translate(32,18)"/>
<path d="M0 0 C0.82741699 0.01047363 1.65483398 0.02094727 2.50732422 0.03173828 C3.40322266 0.03818359 4.29912109 0.04462891 5.22216797 0.05126953 C6.62789062 0.07640625 6.62789062 0.07640625 8.06201172 0.10205078 C9.00689453 0.11107422 9.95177734 0.12009766 10.92529297 0.12939453 C13.26278464 0.15300556 15.59977295 0.18593562 17.93701172 0.22705078 C17.93701172 1.54705078 17.93701172 2.86705078 17.93701172 4.22705078 C15.68846458 6.47559792 10.51900328 5.45953379 7.49951172 5.47705078 C6.61457031 5.49767578 5.72962891 5.51830078 4.81787109 5.53955078 C3.5484668 5.54728516 3.5484668 5.54728516 2.25341797 5.55517578 C1.47426025 5.56452148 0.69510254 5.57386719 -0.10766602 5.58349609 C-0.75292236 5.46586914 -1.39817871 5.34824219 -2.06298828 5.22705078 C-2.72298828 4.23705078 -3.38298828 3.24705078 -4.06298828 2.22705078 C-2.06298828 0.22705078 -2.06298828 0.22705078 0 0 Z " fill="#FFAA05" transform="translate(49.06298828125,49.77294921875)"/>
<path d="M0 0 C7.59 0 15.18 0 23 0 C23 0.99 23 1.98 23 3 C22 4 22 4 19.95874023 4.11352539 C19.08419189 4.10828857 18.20964355 4.10305176 17.30859375 4.09765625 C16.36435547 4.09443359 15.42011719 4.09121094 14.44726562 4.08789062 C13.45404297 4.07951172 12.46082031 4.07113281 11.4375 4.0625 C10.44041016 4.05798828 9.44332031 4.05347656 8.41601562 4.04882812 C5.94395151 4.03700007 3.47200482 4.02051849 1 4 C0.67 2.68 0.34 1.36 0 0 Z " fill="#FFAA05" transform="translate(44,67)"/>
<path d="M0 0 C6.93 0 13.86 0 21 0 C21 1.32 21 2.64 21 4 C14.07 4 7.14 4 0 4 C0 2.68 0 1.36 0 0 Z " fill="#FFAA05" transform="translate(46,26)"/>
<path d="M0 0 C0.83265381 0.00523682 1.66530762 0.01047363 2.52319336 0.01586914 C3.42231445 0.0190918 4.32143555 0.02231445 5.24780273 0.02563477 C6.66609375 0.03820313 6.66609375 0.03820313 8.11303711 0.05102539 C9.06243164 0.05553711 10.01182617 0.06004883 10.98999023 0.06469727 C13.34356776 0.07652429 15.69702188 0.09300514 18.05053711 0.11352539 C18.05053711 1.43352539 18.05053711 2.75352539 18.05053711 4.11352539 C11.12053711 4.11352539 4.19053711 4.11352539 -2.94946289 4.11352539 C-2.94946289 0.17175958 -2.94946289 0.17175958 0 0 Z " fill="#FFAA05" transform="translate(48.949462890625,33.886474609375)"/>
<path d="M0 0 C0.88494141 -0.020625 1.76988281 -0.04125 2.68164062 -0.0625 C3.95104492 -0.07023437 3.95104492 -0.07023437 5.24609375 -0.078125 C6.02525146 -0.0874707 6.80440918 -0.09681641 7.60717773 -0.10644531 C8.25243408 0.01118164 8.89769043 0.12880859 9.5625 0.25 C10.2225 1.24 10.8825 2.23 11.5625 3.25 C10.5625 4.25 10.5625 4.25 8.52124023 4.36352539 C7.64669189 4.35828857 6.77214355 4.35305176 5.87109375 4.34765625 C4.92685547 4.34443359 3.98261719 4.34121094 3.00976562 4.33789062 C2.01654297 4.32951172 1.02332031 4.32113281 0 4.3125 C-0.99708984 4.30798828 -1.99417969 4.30347656 -3.02148438 4.29882812 C-5.49354849 4.28700007 -7.96549518 4.27051849 -10.4375 4.25 C-10.4375 -1.85398241 -4.88067598 0.02831429 0 0 Z " fill="#FFAA05" transform="translate(56.4375,41.75)"/>
</svg>
