<?xml version="1.0" encoding="UTF-8"?>
<svg version="1.1" xmlns="http://www.w3.org/2000/svg" width="79" height="80">
<path d="M0 0 C2 2 2 2 2.265625 5.1875 C2.26046875 6.445625 2.2553125 7.70375 2.25 9 C2.25515625 10.258125 2.2603125 11.51625 2.265625 12.8125 C2 16 2 16 0 18 C-1.65 18 -3.3 18 -5 18 C-5 23.94 -5 29.88 -5 36 C-3.35 36 -1.7 36 0 36 C2 38 2 38 2.265625 41.1875 C2.26046875 42.445625 2.2553125 43.70375 2.25 45 C2.25515625 46.258125 2.2603125 47.51625 2.265625 48.8125 C2 52 2 52 0 54 C-2.31 54 -4.62 54 -7 54 C-6.67 60.93 -6.34 67.86 -6 75 C-4.02 74.505 -4.02 74.505 -2 74 C-1.97873047 72.87851563 -1.97873047 72.87851563 -1.95703125 71.734375 C-1.56865244 63.71487735 -1.56865244 63.71487735 1.1875 60.25 C4.69525153 58.69099932 6.37319655 58.8173467 10 60 C12.41791769 61.77737148 12.94499287 62.70984789 13.51171875 65.69921875 C13.56972656 66.68535156 13.62773438 67.67148438 13.6875 68.6875 C13.78611328 70.17830078 13.78611328 70.17830078 13.88671875 71.69921875 C13.94279297 72.83810547 13.94279297 72.83810547 14 74 C15.32 74.33 16.64 74.66 18 75 C18.03867188 73.64455078 18.03867188 73.64455078 18.078125 72.26171875 C18.16320313 70.49248047 18.16320313 70.49248047 18.25 68.6875 C18.29640625 67.51574219 18.3428125 66.34398438 18.390625 65.13671875 C19 62 19 62 20.82421875 60.08203125 C24.21362205 58.39645726 26.43689357 58.96345995 30 60 C33.14192943 63.14192943 33.16344085 66.06605967 33.1875 70.3125 C33.13958275 71.87551517 33.08187055 73.43839515 33 75 C34.98 74.505 34.98 74.505 37 74 C37.01417969 73.25234375 37.02835938 72.5046875 37.04296875 71.734375 C37.43134756 63.71487735 37.43134756 63.71487735 40.1875 60.25 C43.69525153 58.69099932 45.37319655 58.8173467 49 60 C51.41791769 61.77737148 51.94499287 62.70984789 52.51171875 65.69921875 C52.56972656 66.68535156 52.62773438 67.67148438 52.6875 68.6875 C52.75324219 69.68136719 52.81898437 70.67523438 52.88671875 71.69921875 C52.94279297 72.83810547 52.94279297 72.83810547 53 74 C55.31 74.66 57.62 75.32 60 76 C59.505 77.98 59.505 77.98 59 80 C55.38131211 80.27836061 52.84797121 80.46861567 49.625 78.6875 C47.0541581 74.43572302 47.1684756 69.88579229 47 65 C45.02 64.505 45.02 64.505 43 64 C42.96132812 65.35544922 42.96132812 65.35544922 42.921875 66.73828125 C42.83679687 68.50751953 42.83679687 68.50751953 42.75 70.3125 C42.70359375 71.48425781 42.6571875 72.65601562 42.609375 73.86328125 C42 77 42 77 40.17578125 78.921875 C36.81931505 80.58504317 34.53880539 79.96512874 31 79 C28.16943118 76.070229 27.57620788 73.75835979 27.3125 69.75 C27.21388672 68.41195312 27.21388672 68.41195312 27.11328125 67.046875 C27.05720703 66.03367188 27.05720703 66.03367188 27 65 C26.01 65 25.02 65 24 65 C23.98582031 65.66386719 23.97164062 66.32773438 23.95703125 67.01171875 C23.711918 71.54962625 23.43991091 74.34013363 20.875 78.1875 C18 80 18 80 14.3125 80 C11 79 11 79 9 76 C8.5859375 73.30078125 8.5859375 73.30078125 8.375 70.3125 C8.30023437 69.31863281 8.22546875 68.32476562 8.1484375 67.30078125 C8.09945313 66.54152344 8.05046875 65.78226562 8 65 C6.68 64.67 5.36 64.34 4 64 C3.97421875 64.81984375 3.9484375 65.6396875 3.921875 66.484375 C3.86515625 67.56203125 3.8084375 68.6396875 3.75 69.75 C3.68039063 71.35101563 3.68039063 71.35101563 3.609375 72.984375 C2.88316106 76.57820294 1.92478814 77.83660195 -1 80 C-4.5625 80 -4.5625 80 -8 79 C-10.10337601 76.84607516 -10.92773371 75.52487599 -11.34057617 72.52636719 C-11.32486572 71.62563477 -11.30915527 70.72490234 -11.29296875 69.796875 C-11.28330078 68.8171875 -11.27363281 67.8375 -11.26367188 66.828125 C-11.23853516 65.81234375 -11.21339844 64.7965625 -11.1875 63.75 C-11.17396484 62.71875 -11.16042969 61.6875 -11.14648438 60.625 C-11.11117607 58.08280208 -11.06186036 55.54166777 -11 53 C-11.62519531 52.86335938 -12.25039062 52.72671875 -12.89453125 52.5859375 C-15.41316482 51.88501907 -16.37053174 51.0174369 -18 49 C-19.26985582 45.19043254 -19.20146051 41.57766624 -19.23828125 37.60546875 C-19.246353 36.78049393 -19.25442474 35.9555191 -19.26274109 35.10554504 C-19.27656573 33.35969128 -19.28729513 31.61381068 -19.29516602 29.86791992 C-19.31236972 27.20764533 -19.35626773 24.54861692 -19.40039062 21.88867188 C-19.41051904 20.19011328 -19.41903468 18.49154415 -19.42578125 16.79296875 C-19.44328934 16.00214401 -19.46079742 15.21131927 -19.47883606 14.39653015 C-19.45838318 9.14865895 -18.50182275 6.14780943 -15 2 C-10.3956137 -0.35573252 -5.10321701 -0.69403751 0 0 Z M-14 8 C-15.16632426 11.49897278 -15.19931108 14.69229321 -15.23828125 18.3359375 C-15.246353 19.05230377 -15.25442474 19.76867004 -15.26274109 20.50674438 C-15.27655713 22.02139889 -15.28729036 23.53608421 -15.29516602 25.05078125 C-15.30669599 26.59677271 -15.32716421 28.14272406 -15.35668945 29.68847656 C-15.39941354 31.92540461 -15.41553948 34.16115187 -15.42578125 36.3984375 C-15.44328934 37.08505463 -15.46079742 37.77167175 -15.47883606 38.47909546 C-15.46280206 42.04493529 -15.05419609 43.91568954 -13.10717773 46.94458008 C-11.21636695 49.14641216 -11.21636695 49.14641216 -8.859375 49.48828125 C-8.16328125 49.43027344 -7.4671875 49.37226562 -6.75 49.3125 C-5.5125 49.209375 -4.275 49.10625 -3 49 C-3 46.36 -3 43.72 -3 41 C-3.66 41 -4.32 41 -5 41 C-5.33 41.66 -5.66 42.32 -6 43 C-6.66 43 -7.32 43 -8 43 C-8 32.44 -8 21.88 -8 11 C-7.34 11 -6.68 11 -6 11 C-5.67 11.99 -5.34 12.98 -5 14 C-4.34 14 -3.68 14 -3 14 C-3 11.03 -3 8.06 -3 5 C-9.15596492 4.61704657 -9.15596492 4.61704657 -14 8 Z " fill="#FFAA05" transform="translate(19,0)"/>
<path d="M0 0 C6.78950896 3.7515605 10.60471933 8.63447049 13.0390625 15.9375 C13.92034516 24.20896722 13.23473445 31.21298665 8.0390625 37.9375 C2.61065946 42.60535621 -2.37554582 44.90691336 -9.50390625 45.47265625 C-10.57705078 45.55966797 -11.65019531 45.64667969 -12.75585938 45.73632812 C-13.87541016 45.82333984 -14.99496094 45.91035156 -16.1484375 46 C-17.27958984 46.09087891 -18.41074219 46.18175781 -19.57617188 46.27539062 C-22.37084486 46.49943614 -25.16574861 46.72000144 -27.9609375 46.9375 C-27.93193359 46.33639404 -27.90292969 45.73528809 -27.87304688 45.1159668 C-27.66836651 39.02723455 -27.66836651 39.02723455 -30.4609375 33.75 C-34.1187133 27.81002221 -33.80684736 21.69679859 -32.9609375 14.9375 C-31.28790362 8.7275919 -27.28721378 4.41452859 -21.9609375 0.9375 C-15.26130584 -2.35553929 -6.99246044 -2.50916786 0 0 Z M-24.8359375 9.875 C-28.43807865 15.06632107 -29.94340158 19.56317949 -28.9609375 25.9375 C-27.52733001 29.78524841 -25.87240179 33.02603571 -22.9609375 35.9375 C-22.8359375 39.0625 -22.8359375 39.0625 -22.9609375 41.9375 C-21.99994141 41.82921875 -21.99994141 41.82921875 -21.01953125 41.71875 C-17.05911701 41.29378752 -13.32376219 40.91873321 -9.3359375 41.125 C-4.22762225 40.84120471 -0.18719253 38.98947749 3.5859375 35.51171875 C7.7786126 30.73946797 9.54435154 26.44082439 9.3515625 20.0546875 C8.57816833 14.81494197 6.05067989 10.54221325 2.1015625 7.0625 C-7.04639202 0.71493972 -17.3191906 1.34426378 -24.8359375 9.875 Z " fill="#FFAA05" transform="translate(60.9609375,7.0625)"/>
<path d="M0 0 C1.423125 0.4021875 1.423125 0.4021875 2.875 0.8125 C4.50905901 4.08061802 4.05953757 7.66249407 4.0625 11.25 C4.07474609 12.02666016 4.08699219 12.80332031 4.09960938 13.60351562 C4.10974195 17.52482309 4.0975417 19.47868745 1.875 22.8125 C-1.125 23.1875 -1.125 23.1875 -4.125 22.8125 C-6.68712287 18.96931569 -6.45608539 15.76556045 -6.4375 11.3125 C-6.45361328 10.54035156 -6.46972656 9.76820312 -6.48632812 8.97265625 C-6.4912464 3.29696645 -6.4912464 3.29696645 -4.79760742 1.05664062 C-3.125 -0.1875 -3.125 -0.1875 0 0 Z M-1.125 4.8125 C-1.125 9.1025 -1.125 13.3925 -1.125 17.8125 C-0.795 17.8125 -0.465 17.8125 -0.125 17.8125 C-0.125 13.5225 -0.125 9.2325 -0.125 4.8125 C-0.455 4.8125 -0.785 4.8125 -1.125 4.8125 Z " fill="#FFAA05" transform="translate(52.125,12.1875)"/>
<path d="M0 0 C1.32841008 5.43440487 1.32841008 5.43440487 -0.125 7.9375 C-2 9 -2 9 -4.5625 8.8125 C-7 8 -7 8 -9 6 C-8.75 2.9375 -8.75 2.9375 -8 0 C-5.13822943 -1.43088528 -3.06624227 -0.59991697 0 0 Z " fill="#FFAA05" transform="translate(55,37)"/>
</svg>
