<?xml version="1.0" encoding="UTF-8"?>
<svg version="1.1" xmlns="http://www.w3.org/2000/svg" width="79" height="79">
<path d="M0 0 C0.68128967 -0.00175232 1.36257935 -0.00350464 2.06451416 -0.00531006 C4.32688917 -0.00972789 6.58918663 -0.00679084 8.8515625 -0.00341797 C10.4171551 -0.00409103 11.9827476 -0.00506107 13.54833984 -0.00631714 C16.83366895 -0.00779402 20.11897092 -0.00563988 23.40429688 -0.00097656 C27.62476766 0.00472073 31.84517486 0.00144167 36.06564331 -0.00454903 C39.29972822 -0.00815491 42.53379795 -0.00701593 45.7678833 -0.00442123 C47.32448331 -0.00375204 48.88108468 -0.00458012 50.43768311 -0.00690079 C52.60953446 -0.00942777 54.78128146 -0.00558612 56.953125 0 C58.19143066 0.00079559 59.42973633 0.00159119 60.70556641 0.00241089 C63.4765625 0.12939453 63.4765625 0.12939453 64.4765625 1.12939453 C64.84416981 3.45757417 65.17897831 5.79123303 65.4765625 8.12939453 C67.9515625 7.63439453 67.9515625 7.63439453 70.4765625 7.12939453 C71.15625 8.84814453 71.15625 8.84814453 71.4765625 11.12939453 C70.296875 13.28564453 70.296875 13.28564453 68.6015625 15.62939453 C65.33699775 20.68833898 64.74122597 24.80745064 64.58203125 30.75830078 C64.4765625 33.12939453 64.4765625 33.12939453 63.4765625 34.12939453 C61.3039357 34.22895731 59.12803144 34.25739172 56.953125 34.25878906 C56.27183533 34.26054138 55.59054565 34.2622937 54.88861084 34.26409912 C52.62623583 34.26851695 50.36393837 34.26557991 48.1015625 34.26220703 C46.5359699 34.26288009 44.9703774 34.26385013 43.40478516 34.2651062 C40.11945605 34.26658308 36.83415408 34.26442894 33.54882812 34.25976562 C29.32835734 34.25406834 25.10795014 34.25734739 20.88748169 34.26333809 C17.65339678 34.26694397 14.41932705 34.26580499 11.1852417 34.2632103 C9.62864169 34.2625411 8.07204032 34.26336919 6.51544189 34.26568985 C4.34359054 34.26821683 2.17184354 34.26437518 0 34.25878906 C-1.23830566 34.25799347 -2.47661133 34.25719788 -3.75244141 34.25637817 C-6.5234375 34.12939453 -6.5234375 34.12939453 -7.5234375 33.12939453 C-7.6242187 30.76540985 -7.66316965 28.43128142 -7.65625 26.06689453 C-7.65720673 25.36040771 -7.65816345 24.6539209 -7.65914917 23.92602539 C-7.65983083 22.4296866 -7.65797755 20.93334486 -7.65380859 19.43701172 C-7.64846007 17.13909296 -7.65375401 14.84136967 -7.66015625 12.54345703 C-7.65949547 11.09293576 -7.6582143 9.64241462 -7.65625 8.19189453 C-7.65827423 7.50023193 -7.66029846 6.80856934 -7.66238403 6.09594727 C-7.62943554 -0.56617452 -6.43604982 0.00413507 0 0 Z M-3.5234375 5.12939453 C-3.5234375 13.37939453 -3.5234375 21.62939453 -3.5234375 30.12939453 C17.5965625 30.12939453 38.7165625 30.12939453 60.4765625 30.12939453 C60.8065625 26.16939453 61.1365625 22.20939453 61.4765625 18.12939453 C62.1365625 16.80939453 62.7965625 15.48939453 63.4765625 14.12939453 C62.4865625 14.12939453 61.4965625 14.12939453 60.4765625 14.12939453 C60.4765625 11.15939453 60.4765625 8.18939453 60.4765625 5.12939453 C39.3565625 5.12939453 18.2365625 5.12939453 -3.5234375 5.12939453 Z " fill="#FFAA05" transform="translate(7.5234375,44.87060546875)"/>
<path d="M0 0 C9.23997552 -0.02312524 18.47994114 -0.04091601 27.71993923 -0.05181217 C32.00999915 -0.05704061 36.30003933 -0.06413753 40.59008789 -0.07543945 C44.726794 -0.08626975 48.86348108 -0.09227714 53.00020027 -0.09487724 C54.58192304 -0.09673124 56.16364471 -0.10035136 57.74535942 -0.10573006 C59.95322838 -0.1129424 62.16101773 -0.11399086 64.36889648 -0.11352539 C65.62798325 -0.115746 66.88707001 -0.11796661 68.18431091 -0.12025452 C71 -0 71 -0 72 1 C72.1002093 3.27947792 72.13081303 5.56207135 72.1328125 7.84375 C72.13376923 8.52804077 72.13472595 9.21233154 72.13571167 9.9173584 C72.1363933 11.36661877 72.13454023 12.81588218 72.13037109 14.26513672 C72.12502252 16.49062928 72.1303166 18.71592001 72.13671875 20.94140625 C72.13605797 22.34635461 72.1347768 23.75130285 72.1328125 25.15625 C72.13168457 26.44337891 72.13055664 27.73050781 72.12939453 29.05664062 C72 32 72 32 71 33 C68.79675026 33.09960152 66.5902651 33.12799757 64.38476562 33.12939453 C63.69372238 33.13114685 63.00267914 33.13289917 62.29069519 33.13470459 C59.99585493 33.13912254 57.70109111 33.13618533 55.40625 33.1328125 C53.81823715 33.13348556 52.23022441 33.13445559 50.64221191 33.13571167 C47.3098045 33.13718857 43.97742384 33.13503436 40.64501953 33.13037109 C36.3640149 33.1246738 32.08307295 33.12795285 27.80207062 33.13394356 C24.52166264 33.1375494 21.24126963 33.13641048 17.96086121 33.13381577 C16.3819325 33.13314656 14.80300246 33.1339747 13.22407532 33.13629532 C11.02109147 33.13882223 8.81821051 33.13498075 6.61523438 33.12939453 C4.73112854 33.12820114 4.73112854 33.12820114 2.80895996 33.12698364 C-0 33 -0 33 -1 32 C-1.1067699 29.98026933 -1.18501471 27.95900655 -1.25 25.9375 C-1.61086588 20.35325337 -2.63576959 17.11326653 -5.921875 12.65625 C-7.38718641 10.40519189 -7.40863197 8.61524462 -7 6 C-4.525 6.495 -4.525 6.495 -2 7 C-1.34 4.69 -0.68 2.38 0 0 Z M3 4 C3 7.3 3 10.6 3 14 C2.01 14.495 2.01 14.495 1 15 C1.33 15.66 1.66 16.32 2 17 C2.33 20.96 2.66 24.92 3 29 C24.12 29 45.24 29 67 29 C67 20.75 67 12.5 67 4 C45.88 4 24.76 4 3 4 Z " fill="#FFAA05" transform="translate(7,0)"/>
<path d="M0 0 C1.01199463 0.00326294 1.01199463 0.00326294 2.04443359 0.0065918 C4.10567981 0.00975396 6.16549365 -0.0137114 8.2265625 -0.0390625 C9.51949219 -0.03970703 10.81242187 -0.04035156 12.14453125 -0.04101562 C13.33626953 -0.04399658 14.52800781 -0.04697754 15.75585938 -0.05004883 C16.69880859 0.07281494 17.64175781 0.19567871 18.61328125 0.32226562 C19.27328125 1.31226563 19.93328125 2.30226562 20.61328125 3.32226562 C17.24776629 6.68778059 12.79838406 5.61946144 8.2265625 5.64453125 C7.55189941 5.64235596 6.87723633 5.64018066 6.18212891 5.63793945 C4.12088269 5.63477729 2.06106885 5.65824265 0 5.68359375 C-1.29292969 5.68423828 -2.58585937 5.68488281 -3.91796875 5.68554688 C-5.10970703 5.68852783 -6.30144531 5.69150879 -7.52929688 5.69458008 C-8.47224609 5.57171631 -9.41519531 5.44885254 -10.38671875 5.32226562 C-11.04671875 4.33226562 -11.70671875 3.34226563 -12.38671875 2.32226562 C-9.02120379 -1.04324934 -4.57182156 0.02506981 0 0 Z " fill="#FFAA05" transform="translate(42.38671875,52.677734375)"/>
<path d="M0 0 C10.23 0 20.46 0 31 0 C31 1.32 31 2.64 31 4 C20.77 4 10.54 4 0 4 C0 2.68 0 1.36 0 0 Z " fill="#FFAA05" transform="translate(31,65)"/>
<path d="M0 0 C9.9 0 19.8 0 30 0 C30 1.32 30 2.64 30 4 C19.77 4 9.54 4 -1 4 C-0.67 2.68 -0.34 1.36 0 0 Z " fill="#FFAA05" transform="translate(17,19)"/>
<path d="M0 0 C9.9 0 19.8 0 30 0 C30 1.32 30 2.64 30 4 C20.1 4 10.2 4 0 4 C0 2.68 0 1.36 0 0 Z " fill="#FFAA05" transform="translate(17,8)"/>
<path d="M0 0 C0.99 0 1.98 0 3 0 C3.39169887 2.66355234 3.40564529 4.39224373 1.88671875 6.66796875 C0.63610683 8.1510888 -0.67864514 9.57954352 -2 11 C-3.9375 10.3125 -3.9375 10.3125 -6 9 C-6.75 6.375 -6.75 6.375 -7 4 C-6.01 3.67 -5.02 3.34 -4 3 C-3.34 3.33 -2.68 3.66 -2 4 C-1.34 2.68 -0.68 1.36 0 0 Z " fill="#FFAA05" transform="translate(26,52)"/>
<path d="M0 0 C0.39169887 2.66355234 0.40564529 4.39224373 -1.11328125 6.66796875 C-2.36389317 8.1510888 -3.67864514 9.57954352 -5 11 C-6.32 10.67 -7.64 10.34 -9 10 C-9.33 8.02 -9.66 6.04 -10 4 C-8.35 4 -6.7 4 -5 4 C-4.67 3.01 -4.34 2.02 -4 1 C-1 0 -1 0 0 0 Z " fill="#FFAA05" transform="translate(70,6)"/>
<path d="M0 0 C1.32 0 2.64 0 4 0 C3.49967382 4.37785406 2.11840922 6.88159078 -1 10 C-2.32 10 -3.64 10 -5 10 C-5.33 7.69 -5.66 5.38 -6 3 C-4.68 3 -3.36 3 -2 3 C-1.34 2.01 -0.68 1.02 0 0 Z " fill="#FFAA05" transform="translate(55,13)"/>
<path d="M0 0 C1.32 0 2.64 0 4 0 C3.49701212 4.40114397 1.91227269 6.71195019 -1 10 C-2.32 9.67 -3.64 9.34 -5 9 C-5.33 7.02 -5.66 5.04 -6 3 C-4.35 3 -2.7 3 -1 3 C-0.67 2.01 -0.34 1.02 0 0 Z " fill="#FFAA05" transform="translate(14,59)"/>
</svg>
